{
	"nodes":[{
		"name":"1993",
		"translation":[0.0,
		0.0,
		0.0],
		"rotation":[0.0026179898995906116,
		0.000002284627726112376,
		0.0008726615342311561,
		-0.9999961853027344],
		"scale":[1.0,
		1.0,
		1.0],
		"children":[1]
	},
	{
		"name":"Extrude",
		"translation":[0.0,
		-2.0620782375335695,
		0.022356560453772546],
		"rotation":[0.0,
		0.0,
		0.0,
		-1.0],
		"scale":[1.0,
		1.0,
		1.0],
		"children":[2,
		3]
	},
	{
		"name":"Extrude-Mat.2",
		"mesh":0
	},
	{
		"name":"Extrude-Mat",
		"mesh":1
	}],
	"asset":{
		"version":"2.0",
		"generator":"Created using the official Cinema 4D glTF Exporter 1.000x284978"
	},
	"scenes":[{
		"nodes":[0]
	}],
	"materials":[{
		"emissiveFactor":[0.0,
		0.0,
		0.0],
		"pbrMetallicRoughness":{
			"baseColorFactor":[0.8,
			0.8,
			0.8,
			1.0],
			"metallicFactor":0.0,
			"roughnessFactor":0.5
		},
		"alphaMode":"OPAQUE",
		"doubleSided":true,
		"name":"Mat.2"
	},
	{
		"emissiveFactor":[0.0,
		0.0,
		0.0],
		"pbrMetallicRoughness":{
			"baseColorFactor":[0.06274509803921569,
			0.08627450980392157,
			0.08627450980392157,
			1.0],
			"metallicFactor":1.0,
			"roughnessFactor":1.0
		},
		"alphaMode":"OPAQUE",
		"doubleSided":true,
		"name":"Mat"
	}],
	"meshes":[{
		"name":"Extrude-Mat.2",
		"primitives":[{
			"attributes":{
				"POSITION":1,
				"NORMAL":2,
				"TEXCOORD_0":3
			},
			"indices":0,
			"material":0
		}]
	},
	{
		"name":"Extrude-Mat",
		"primitives":[{
			"attributes":{
				"POSITION":5,
				"NORMAL":6,
				"TEXCOORD_0":7
			},
			"indices":4,
			"material":1
		}]
	}],
	"accessors":[{
		"bufferView":0,
		"type":"SCALAR",
		"componentType":5123,
		"count":7422,
		"byteOffset":0,
		"min":[0],
		"max":[1492]
	},
	{
		"bufferView":1,
		"type":"VEC3",
		"componentType":5126,
		"count":1493,
		"byteOffset":0,
		"min":[-14.890107154846192,
		2.1002614498138429,
		-0.022732311859726907],
		"max":[14.971561431884766,
		159.32858276367188,
		9.602293014526368]
	},
	{
		"bufferView":1,
		"type":"VEC3",
		"componentType":5126,
		"count":1493,
		"byteOffset":12,
		"min":[-0.019968751817941667,
		-0.5751875042915344,
		-0.9999688267707825],
		"max":[0.3738437592983246,
		0.5725937485694885,
		0.9999688267707825]
	},
	{
		"bufferView":1,
		"type":"VEC2",
		"componentType":5126,
		"count":1493,
		"byteOffset":24,
		"min":[0.2391304224729538,
		0.04545454680919647],
		"max":[0.758529007434845,
		0.9545454382896423]
	},
	{
		"bufferView":2,
		"type":"SCALAR",
		"componentType":5123,
		"count":1500,
		"byteOffset":0,
		"min":[0],
		"max":[511]
	},
	{
		"bufferView":3,
		"type":"VEC3",
		"componentType":5126,
		"count":512,
		"byteOffset":0,
		"min":[-14.890107154846192,
		2.1002614498138429,
		-0.02207285910844803],
		"max":[14.971561431884766,
		159.32858276367188,
		9.602293014526368]
	},
	{
		"bufferView":3,
		"type":"VEC3",
		"componentType":5126,
		"count":512,
		"byteOffset":12,
		"min":[-1.0,
		-0.9611250162124634,
		-0.00390625],
		"max":[0.9999688267707825,
		0.8012812733650208,
		0.9465938210487366]
	},
	{
		"bufferView":3,
		"type":"VEC2",
		"componentType":5126,
		"count":512,
		"byteOffset":24,
		"min":[0.0,
		0.0],
		"max":[1.0,
		1.0]
	}],
	"bufferViews":[{
		"buffer":0,
		"byteOffset":0,
		"byteLength":14844,
		"target":34963
	},
	{
		"buffer":0,
		"byteOffset":14844,
		"byteLength":47776,
		"target":34962,
		"byteStride":32
	},
	{
		"buffer":1,
		"byteOffset":0,
		"byteLength":3000,
		"target":34963
	},
	{
		"buffer":1,
		"byteOffset":3000,
		"byteLength":16384,
		"target":34962,
		"byteStride":32
	}],
	"buffers":[{
		"uri":"data:application/octet-stream;base64,",
		"byteLength":62620
	},
	{
		"uri":"data:application/octet-stream;base64,",
		"byteLength":19384
	}]
}