{
	"nodes":[{
		"name":"Extrude",
		"children":[1,
		2,
		3]
	},
	{
		"name":"Extrude-Base",
		"mesh":0
	},
	{
		"name":"Extrude-Mat",
		"mesh":1
	},
	{
		"name":"Extrude-Top",
		"mesh":2
	}],
	"asset":{
		"version":"2.0",
		"generator":"Created using the official Cinema 4D glTF Exporter 1.000x284978"
	},
	"images":[{
		"uri":"data:image/jpeg;base64,"
	}],
	"scenes":[{
		"nodes":[0]
	}],
	"materials":[{
		"emissiveFactor":[0.0,
		0.0,
		0.0],
		"pbrMetallicRoughness":{
			"baseColorFactor":[0.8,
			0.8,
			0.8,
			1.0],
			"metallicFactor":1.0,
			"roughnessFactor":1.0
		},
		"alphaMode":"OPAQUE",
		"doubleSided":true,
		"name":"Base"
	},
	{
		"emissiveFactor":[0.0,
		0.0,
		0.0],
		"pbrMetallicRoughness":{
			"baseColorFactor":[0.13,
			0.13,
			0.13,
			1.0],
			"metallicFactor":0.0,
			"roughnessFactor":0.5
		},
		"alphaMode":"OPAQUE",
		"doubleSided":true,
		"name":"Mat"
	},
	{
		"emissiveFactor":[0.0,
		0.0,
		0.0],
		"pbrMetallicRoughness":{
			"baseColorTexture":{
				"index":0
			},
			"baseColorFactor":[0.8,
			0.8,
			0.8,
			1.0],
			"metallicFactor":1.0,
			"roughnessFactor":1.0
		},
		"alphaMode":"OPAQUE",
		"doubleSided":true,
		"name":"Top"
	}],
	"meshes":[{
		"name":"Extrude-Base",
		"primitives":[{
			"attributes":{
				"POSITION":1,
				"NORMAL":2,
				"TEXCOORD_0":3
			},
			"indices":0,
			"material":0
		}]
	},
	{
		"name":"Extrude-Mat",
		"primitives":[{
			"attributes":{
				"POSITION":5,
				"NORMAL":6,
				"TEXCOORD_0":7
			},
			"indices":4,
			"material":1
		}]
	},
	{
		"name":"Extrude-Top",
		"primitives":[{
			"attributes":{
				"POSITION":9,
				"NORMAL":10,
				"TEXCOORD_0":11
			},
			"indices":8,
			"material":2
		}]
	}],
	"accessors":[{
		"bufferView":0,
		"type":"SCALAR",
		"componentType":5123,
		"count":2175,
		"byteOffset":0,
		"min":[0],
		"max":[444]
	},
	{
		"bufferView":1,
		"type":"VEC3",
		"componentType":5126,
		"count":445,
		"byteOffset":0,
		"min":[-16.486228942871095,
		0.05986909568309784,
		-0.06995253264904022],
		"max":[16.546350479125978,
		156.30325317382813,
		8.14151382446289]
	},
	{
		"bufferView":1,
		"type":"VEC3",
		"componentType":5126,
		"count":445,
		"byteOffset":12,
		"min":[-0.007718750275671482,
		-0.3839375078678131,
		-1.0],
		"max":[0.008593750186264515,
		0.44709378480911257,
		-0.8944063186645508]
	},
	{
		"bufferView":1,
		"type":"VEC2",
		"componentType":5126,
		"count":445,
		"byteOffset":24,
		"min":[0.045322317630052569,
		-1.8676049709320069],
		"max":[0.9517686367034912,
		-1.1742706298828126]
	},
	{
		"bufferView":2,
		"type":"SCALAR",
		"componentType":5123,
		"count":966,
		"byteOffset":0,
		"min":[0],
		"max":[325]
	},
	{
		"bufferView":3,
		"type":"VEC3",
		"componentType":5126,
		"count":326,
		"byteOffset":0,
		"min":[-16.486228942871095,
		0.05986909568309784,
		-0.06995253264904022],
		"max":[16.546350479125978,
		156.30325317382813,
		8.669363021850586]
	},
	{
		"bufferView":3,
		"type":"VEC3",
		"componentType":5126,
		"count":326,
		"byteOffset":12,
		"min":[-0.9999688267707825,
		-0.9210938215255737,
		-0.01243750099092722],
		"max":[0.9999688267707825,
		0.8940938115119934,
		0.4477812647819519]
	},
	{
		"bufferView":3,
		"type":"VEC2",
		"componentType":5126,
		"count":326,
		"byteOffset":24,
		"min":[0.0,
		0.0],
		"max":[0.9998109340667725,
		1.0]
	},
	{
		"bufferView":4,
		"type":"SCALAR",
		"componentType":5123,
		"count":2319,
		"byteOffset":0,
		"min":[0],
		"max":[468]
	},
	{
		"bufferView":5,
		"type":"VEC3",
		"componentType":5126,
		"count":469,
		"byteOffset":0,
		"min":[-16.486228942871095,
		0.28953635692596438,
		0.5203994512557983],
		"max":[16.546350479125978,
		156.0388946533203,
		8.669363021850586]
	},
	{
		"bufferView":5,
		"type":"VEC3",
		"componentType":5126,
		"count":469,
		"byteOffset":12,
		"min":[-0.007656250149011612,
		-0.44696876406669619,
		0.8945000171661377],
		"max":[0.00937500037252903,
		0.3839375078678131,
		1.0]
	},
	{
		"bufferView":5,
		"type":"VEC2",
		"componentType":5126,
		"count":469,
		"byteOffset":24,
		"min":[0.03761977702379227,
		0.1889740228652954],
		"max":[0.9781142473220825,
		0.7702597975730896]
	}],
	"bufferViews":[{
		"buffer":0,
		"byteOffset":0,
		"byteLength":4350,
		"target":34963
	},
	{
		"buffer":0,
		"byteOffset":4352,
		"byteLength":14240,
		"target":34962,
		"byteStride":32
	},
	{
		"buffer":1,
		"byteOffset":0,
		"byteLength":1932,
		"target":34963
	},
	{
		"buffer":1,
		"byteOffset":1932,
		"byteLength":10432,
		"target":34962,
		"byteStride":32
	},
	{
		"buffer":2,
		"byteOffset":0,
		"byteLength":4638,
		"target":34963
	},
	{
		"buffer":2,
		"byteOffset":4640,
		"byteLength":15008,
		"target":34962,
		"byteStride":32
	}],
	"buffers":[{
		"uri":"data:application/octet-stream;base64,",
		"byteLength":18592
	},
	{
		"uri":"data:application/octet-stream;base64,",
		"byteLength":12364
	},
	{
		"uri":"data:application/octet-stream;base64,",
		"byteLength":19648
	}],
	"samplers":[{
		"magFilter":9729,
		"minFilter":9729,
		"wrapS":10497,
		"wrapT":10497
	}],
	"textures":[{
		"sampler":0,
		"source":0
	}]
}