{
	"textures":[{
		"sampler":0,
		"source":0
	}],
	"nodes":[{
		"name":"Extrude.5",
		"translation":[-2.268867015838623,
		179.20201110839845,
		2.8378634452819826],
		"rotation":[0.7126830220222473,
		-8.659289288185637e-17,
		8.659289288185637e-17,
		0.7014862298965454],
		"scale":[1.0,
		1.0,
		1.0],
		"children":[1]
	},
	{
		"name":"Extrude.4",
		"mesh":0
	}],
	"asset":{
		"version":"2.0",
		"generator":"Created using the official Cinema 4D glTF Exporter 1.000x284978"
	},
	"scenes":[{
		"nodes":[0]
	}],
	"meshes":[{
		"name":"Extrude.4",
		"primitives":[{
			"attributes":{
				"POSITION":1,
				"TEXCOORD_0":2
			},
			"indices":0,
			"material":0
		}]
	}],
	"accessors":[{
		"max":[1352],
		"bufferView":0,
		"type":"SCALAR",
		"componentType":5123,
		"count":4020,
		"byteOffset":0,
		"min":[0]
	},
	{
		"max":[33.847312927246097,
		19.58269500732422,
		171.68898010253907],
		"bufferView":1,
		"type":"VEC3",
		"componentType":5126,
		"count":1353,
		"byteOffset":0,
		"min":[-27.385244369506837,
		-1.8298296905472357e-14,
		-161.39398193359376]
	},
	{
		"max":[0.9980040192604065,
		0.6450153589248657],
		"bufferView":1,
		"type":"VEC2",
		"componentType":5126,
		"count":1353,
		"byteOffset":12,
		"min":[0.0006668754504062235,
		0.0006668753921985626]
	}],
	"bufferViews":[{
		"buffer":0,
		"byteOffset":0,
		"byteLength":8040,
		"target":34963
	},
	{
		"buffer":0,
		"byteOffset":8040,
		"byteLength":27060,
		"target":34962,
		"byteStride":20
	}],
	"buffers":[{
		"uri":"data:application/octet-stream;base64,",
		"byteLength":35100
	}],
	"images":[{
		"uri":"data:image/jpeg;base64,"
	}],
	"samplers":[{
		"magFilter":9729,
		"minFilter":9729,
		"wrapS":10497,
		"wrapT":10497
	}],
	"materials":[{
		"pbrMetallicRoughness":{
			"baseColorTexture":{
				"index":0
			},
			"baseColorFactor":[0.8,
			0.8,
			0.8,
			1.0],
			"metallicFactor":0.0,
			"roughnessFactor":0.5
		},
		"emissiveFactor":[0.0,
		0.0,
		0.0],
		"alphaMode":"OPAQUE",
		"doubleSided":true,
		"name":"Extrude"
	}]
}